<svg fill="none" height="24" width="24" xmlns="http://www.w3.org/2000/svg"><path d="M17.212 2.237a.75.75 0 00-1.423-.474l-.75 2.249a.75.75 0 001.423.474l.75-2.249zm4.568-.017a.75.75 0 010 1.06l-2.5 2.5a.75.75 0 11-1.06-1.06l2.5-2.5a.75.75 0 011.06 0zm-8.91 1.52a2.325 2.325 0 00-3.794.578l-5.898 12.24a1.8 1.8 0 00.387 2.092l1.439 1.357a1.8 1.8 0 001.964.336l1.417-.628a4 4 0 007.314-3.24l3.42-1.516a2.325 2.325 0 00.758-3.712L12.87 3.74zm1.457 13.342a2.5 2.5 0 01-4.569 2.024l4.569-2.024zM19 8.25a.75.75 0 01.75-.75h2a.75.75 0 010 1.5h-2a.75.75 0 01-.75-.75z" fill="#212121"/></svg>