<?xml version="1.0" encoding="utf-8"?><svg viewBox="0 0 24 24" xmlns="http://www.w3.org/2000/svg" xmlns:xlink="http://www.w3.org/1999/xlink"><style>:root>svg{display:none}:root>svg:target{display:block}</style><svg fill="none" viewBox="0 0 24 24" id="megaphone_loud_filled_icon" xmlns="http://www.w3.org/2000/svg"><path d="M17.212 2.237a.75.75 0 0 0-1.423-.474l-.75 2.249a.75.75 0 0 0 1.423.474l.75-2.249zm4.568-.017a.75.75 0 0 1 0 1.06l-2.5 2.5a.75.75 0 1 1-1.06-1.06l2.5-2.5a.75.75 0 0 1 1.06 0zm-8.91 1.52a2.325 2.325 0 0 0-3.794.578l-5.898 12.24a1.8 1.8 0 0 0 .387 2.092l1.439 1.357a1.8 1.8 0 0 0 1.964.336l1.417-.628a4 4 0 0 0 7.314-3.24l3.42-1.516a2.325 2.325 0 0 0 .758-3.712L12.87 3.74zm1.457 13.342a2.5 2.5 0 0 1-4.569 2.024l4.569-2.024zM19 8.25a.75.75 0 0 1 .75-.75h2a.75.75 0 0 1 0 1.5h-2a.75.75 0 0 1-.75-.75z" fill="#212121"/></svg><svg fill="none" viewBox="0 0 24 24" id="movies_and_tv_icon" xmlns="http://www.w3.org/2000/svg"><path d="m19.729 3.875.05.16.552 1.922a.75.75 0 0 1-.418.893l-.096.035L9.09 9.96h11.159a.75.75 0 0 1 .743.65l.007.1v8.499a2.75 2.75 0 0 1-2.583 2.745l-.167.005H5.75a2.75 2.75 0 0 1-2.745-2.582L3 19.209v-8.392l-.522-1.821a2.75 2.75 0 0 1 1.726-3.35l.16-.052L16.378 2.15a2.75 2.75 0 0 1 3.35 1.726zM6.273 6.607l-1.496.43a1.25 1.25 0 0 0-.886 1.42l.029.125.344 1.201.295-.085 1.714-3.09zm4.756-1.363-2.717.779-1.714 3.09 2.718-.778 1.713-3.091zm4.757-1.365-2.717.78-1.714 3.09 2.717-.778 1.714-3.092zm1.848-.233-1.521 2.74 2.568-.737-.343-1.2a1.248 1.248 0 0 0-.704-.803z" fill="#212121"/></svg><svg fill="none" viewBox="0 0 24 24" id="person_filled_icon" xmlns="http://www.w3.org/2000/svg"><path d="M17.754 14a2.249 2.249 0 0 1 2.25 2.249v.918a2.75 2.75 0 0 1-.513 1.599C17.945 20.929 15.42 22 12 22c-3.422 0-5.945-1.072-7.487-3.237a2.75 2.75 0 0 1-.51-1.595v-.92a2.249 2.249 0 0 1 2.249-2.25h11.501zM12 2.004a5 5 0 1 1 0 10 5 5 0 0 1 0-10z" fill="#212121"/></svg></svg>